<svg version="1.2" xmlns="http://www.w3.org/2000/svg" viewBox="0 0 31 31" width="31" height="31"><style>.a{fill:#193566}</style><path class="a" d="m0.5 5.7c-0.3-0.2-0.5-0.6-0.5-1 0-0.5 0.2-0.9 0.5-1.1 0.2-0.3 0.6-0.5 1.1-0.5h4.9c0.3-0.9 0.9-1.7 1.7-2.2 0.8-0.6 1.7-0.9 2.6-0.9 1 0 1.9 0.3 2.7 0.9 0.8 0.5 1.4 1.3 1.7 2.2h14.2c0.5 0 0.9 0.2 1.1 0.5 0.3 0.2 0.5 0.6 0.5 1.1 0 0.4-0.2 0.8-0.5 1-0.2 0.3-0.6 0.5-1.1 0.5h-14.2c-0.3 0.9-0.9 1.7-1.7 2.2-0.8 0.6-1.7 0.9-2.7 0.9-0.9 0-1.8-0.3-2.6-0.9-0.8-0.5-1.4-1.3-1.7-2.2h-5c-0.4 0-0.8-0.2-1-0.5z"/><path class="a" d="m30.5 14.4c0.3 0.3 0.5 0.7 0.5 1.1 0 0.4-0.2 0.8-0.5 1.1-0.2 0.3-0.6 0.5-1.1 0.5h-4.9c-0.3 0.9-0.9 1.6-1.7 2.2-0.8 0.6-1.7 0.9-2.6 0.9-1 0-1.9-0.3-2.7-0.9-0.8-0.6-1.4-1.3-1.7-2.3h-14.3c-0.4 0-0.8-0.1-1-0.4-0.3-0.3-0.5-0.7-0.5-1.1 0-0.4 0.2-0.8 0.5-1.1 0.2-0.3 0.6-0.4 1.1-0.4h14.2c0.3-1 0.9-1.7 1.7-2.3 0.8-0.6 1.7-0.9 2.7-0.9 0.9 0 1.8 0.3 2.6 0.9 0.8 0.6 1.4 1.3 1.7 2.3h5c0.4 0 0.8 0.1 1 0.4z"/><path class="a" d="m30.5 25.3c0.3 0.2 0.5 0.6 0.5 1.1 0 0.4-0.2 0.8-0.5 1-0.2 0.3-0.6 0.5-1.1 0.5h-14.2c-0.3 0.9-0.9 1.7-1.7 2.2-0.8 0.6-1.7 0.9-2.7 0.9-0.9 0-1.8-0.3-2.6-0.9-0.8-0.5-1.4-1.3-1.7-2.2h-5c-0.4 0-0.8-0.2-1-0.5-0.3-0.2-0.5-0.6-0.5-1 0-0.5 0.2-0.9 0.5-1.1 0.2-0.3 0.6-0.5 1.1-0.5h4.9c0.3-0.9 0.9-1.7 1.7-2.2 0.8-0.6 1.7-0.9 2.6-0.9 1 0 1.9 0.3 2.7 0.9 0.8 0.5 1.4 1.3 1.7 2.2h14.3c0.4 0 0.8 0.2 1 0.5z"/></svg>