<svg xmlns="http://www.w3.org/2000/svg" width="32.419" height="29.6" viewBox="0 0 32.419 29.6">
  <path id="Icon_material-add-a-photo" data-name="Icon material-add-a-photo" d="M4.229,5.729V1.5H7.048V5.729h4.229V8.548H7.048v4.229H4.229V8.548H0V5.729Zm4.229,8.457V9.957h4.229V5.729h9.867l2.579,2.819H29.6a2.827,2.827,0,0,1,2.819,2.819V28.281A2.827,2.827,0,0,1,29.6,31.1H7.048a2.827,2.827,0,0,1-2.819-2.819v-14.1Zm9.867,12.686a7.048,7.048,0,1,0-7.048-7.048A7.05,7.05,0,0,0,18.324,26.872Zm-4.511-7.048a4.511,4.511,0,1,0,4.511-4.511A4.506,4.506,0,0,0,13.814,19.824Z" transform="translate(0 -1.5)" fill="#a9b6c9"/>
</svg>
