<svg xmlns="http://www.w3.org/2000/svg" xmlns:xlink="http://www.w3.org/1999/xlink" width="31" height="31" viewBox="0 0 31 31">
  <defs>
    <clipPath id="clip-path">
      <rect id="Rectangle_4654" data-name="Rectangle 4654" width="31" height="31" transform="translate(360 4165)" fill="#fff"/>
    </clipPath>
  </defs>
  <g id="Mask_Group_43" data-name="Mask Group 43" transform="translate(-360 -4165)" clip-path="url(#clip-path)">
    <g id="employment-man" transform="translate(225.376 4168.048)">
      <g id="Group_20848" data-name="Group 20848" transform="translate(141.232 0)">
        <path id="Path_20031" data-name="Path 20031" d="M144.735,6.537V3.632a2.337,2.337,0,0,1,1.954-2.254c2.252-.429,5.844-1.105,7.423-1.361a1.178,1.178,0,0,1,1.4,1.114V6.537a5.4,5.4,0,0,1-10.777,0Zm11.844,6.311h-2.137a.9.9,0,0,0-.889.665l-1.261,5.069a2.063,2.063,0,0,1-.8,1.17,4.273,4.273,0,0,0,0-1.69l-.924-3.368.631-1.314a.379.379,0,0,0-.364-.532h-1.414a.379.379,0,0,0-.364.532l.631,1.314-.924,3.368a4.272,4.272,0,0,0,0,1.69,2.062,2.062,0,0,1-.8-1.17l-1.261-5.069a.9.9,0,0,0-.889-.665h-2.137a2.371,2.371,0,0,0-2.436,2.3v8.895a.889.889,0,0,0,.914.862H158.1a.889.889,0,0,0,.914-.862V15.147A2.371,2.371,0,0,0,156.58,12.848Z" transform="translate(-141.232 0)" fill="#193566"/>
      </g>
    </g>
  </g>
</svg>
