<svg xmlns="http://www.w3.org/2000/svg" width="30.334" height="42.48" viewBox="0 0 30.334 42.48">
  <g id="employment-man" transform="translate(-141.232 0)">
    <g id="Group_20848" data-name="Group 20848" transform="translate(141.232 0)">
      <path id="Path_20031" data-name="Path 20031" d="M147.207,11.15V6.195a3.985,3.985,0,0,1,3.333-3.845C154.381,1.619,160.509.465,163.2.028a2.01,2.01,0,0,1,2.389,1.9V11.15a9.207,9.207,0,0,1-18.383,0Zm20.2,10.765h-3.646a1.542,1.542,0,0,0-1.517,1.135L160.1,31.7a3.518,3.518,0,0,1-1.367,2,7.289,7.289,0,0,0,0-2.883l-1.577-5.745,1.076-2.241a.646.646,0,0,0-.62-.908h-2.412a.646.646,0,0,0-.62.908l1.076,2.241-1.577,5.745a7.287,7.287,0,0,0,0,2.883,3.518,3.518,0,0,1-1.367-2L150.55,23.05a1.542,1.542,0,0,0-1.517-1.135h-3.646a4.044,4.044,0,0,0-4.155,3.922V41.009a1.516,1.516,0,0,0,1.558,1.471h27.218a1.516,1.516,0,0,0,1.558-1.471V25.837A4.044,4.044,0,0,0,167.411,21.915Z" transform="translate(-141.232 0)" fill="#193566"/>
    </g>
  </g>
</svg>
