<svg xmlns="http://www.w3.org/2000/svg" xmlns:xlink="http://www.w3.org/1999/xlink" width="43.061" height="43.061" viewBox="0 0 43.061 43.061">
  <defs>
    <clipPath id="clip-path">
      <rect id="Rectangle_4652" data-name="Rectangle 4652" width="43.061" height="43.061" fill="#193566"/>
    </clipPath>
  </defs>
  <g id="Mask_Group_41" data-name="Mask Group 41" clip-path="url(#clip-path)">
    <path id="pilot_1_" data-name="pilot (1)" d="M31.479,38.818v1.144H37.2V38.818ZM14.322,29.4l6.291,11.129h.051l.572-8.007h3.311l.572,8.007h.069l6.291-11.106a23.929,23.929,0,0,1,7.892,4A4.775,4.775,0,0,1,41.2,37.1v9.15H4.6V37.1a4.775,4.775,0,0,1,1.824-3.694,29.521,29.521,0,0,1,7.9-4Zm5.719-1.464H25.76l-1.109,3.431h-3.5Zm12-11.489a4.413,4.413,0,0,1,.034.675,9.15,9.15,0,1,1-18.3,0v-.612h.04a22.13,22.13,0,0,0,9.431,2.2A17.626,17.626,0,0,0,31.537,16.7l.069-.035.063-.04.377-.172ZM14.322,10.8v1.716H31.479V10.8Zm8.211-4.83a1.767,1.767,0,0,0-1.114.775,4.457,4.457,0,0,0-1.481-.246l-4.472.029.395.229a2.643,2.643,0,0,0,1.212.36,12.143,12.143,0,0,1,4.175.824,1.756,1.756,0,0,0,3.306,0,12.141,12.141,0,0,1,4.175-.852,2.642,2.642,0,0,0,1.212-.36l.395-.229H25.886A4.457,4.457,0,0,0,24.4,6.74,1.772,1.772,0,0,0,22.533,5.965ZM21.185,3.017a6.7,6.7,0,0,1,3.471,0l11.97,3.2a.572.572,0,0,1,.223.989l-3.78,3.214v1.91a2.476,2.476,0,0,1-1.144,2.082l-1.184.766c-4.7,2.476-10.414,2.476-16.2-.257l-.738-.509a2.477,2.477,0,0,1-1.069-2.036V10.418L8.952,7.2a.572.572,0,0,1,.223-.984Z" transform="translate(-1.211 -2.83)" fill="#193566"/>
  </g>
</svg>
