<svg xmlns="http://www.w3.org/2000/svg" xmlns:xlink="http://www.w3.org/1999/xlink" width="31" height="31" viewBox="0 0 31 31">
  <defs>
    <clipPath id="clip-path">
      <rect id="Rectangle_4653" data-name="Rectangle 4653" width="31" height="31" transform="translate(452 4171)" fill="#fff" stroke="#707070" stroke-width="1"/>
    </clipPath>
    <clipPath id="clip-path-2">
      <rect id="Rectangle_4639" data-name="Rectangle 4639" width="22" height="22" transform="translate(3391 -2343)" fill="#193566"/>
    </clipPath>
  </defs>
  <g id="Mask_Group_42" data-name="Mask Group 42" transform="translate(-452 -4171)" clip-path="url(#clip-path)">
    <g id="Mask_Group_39" data-name="Mask Group 39" transform="translate(-2934 6519)" clip-path="url(#clip-path-2)">
      <path id="pilot_1_" data-name="pilot (1)" d="M18.205,21.025V21.6H21.1v-.579ZM9.521,16.261l3.184,5.633h.026l.289-4.053H14.7l.289,4.053h.035l3.184-5.622A12.112,12.112,0,0,1,22.2,18.3a2.417,2.417,0,0,1,.926,1.858v4.632H4.6V20.157a2.417,2.417,0,0,1,.923-1.87,14.942,14.942,0,0,1,4-2.026Zm2.895-.741h2.895l-.562,1.737H12.977ZM18.492,9.7a2.234,2.234,0,0,1,.017.342,4.632,4.632,0,1,1-9.263,0v-.31h.02A11.2,11.2,0,0,0,14.04,10.85a8.922,8.922,0,0,0,4.194-1.022l.035-.018.032-.02.191-.087ZM9.521,6.841v.868h8.684V6.841ZM13.677,4.4a.894.894,0,0,0-.564.392,2.256,2.256,0,0,0-.75-.125L10.1,4.679l.2.116a1.338,1.338,0,0,0,.614.182,6.146,6.146,0,0,1,2.113.417.889.889,0,0,0,1.673,0,6.145,6.145,0,0,1,2.113-.431,1.338,1.338,0,0,0,.614-.182l.2-.116H15.374a2.256,2.256,0,0,0-.75.125A.9.9,0,0,0,13.677,4.4ZM12.995,2.9a3.392,3.392,0,0,1,1.757,0l6.059,1.621a.289.289,0,0,1,.113.5L19.01,6.653V7.62a1.253,1.253,0,0,1-.579,1.054l-.6.388a9,9,0,0,1-8.2-.13l-.373-.258a1.254,1.254,0,0,1-.541-1.03V6.65L6.8,5.023a.289.289,0,0,1,.113-.5Z" transform="translate(3388.137 -2345.788)" fill="#193566"/>
    </g>
  </g>
</svg>
