<svg xmlns="http://www.w3.org/2000/svg" width="41.81" height="34.985" viewBox="0 0 41.81 34.985">
  <g id="suitcase" transform="translate(0 -2)">
    <path id="Path_20032" data-name="Path 20032" d="M20.869,10.273a1.839,1.839,0,0,1-1.838-1.838V5.677H11.677V8.435A1.838,1.838,0,0,1,8,8.435V5.677A3.681,3.681,0,0,1,11.677,2h7.354a3.681,3.681,0,0,1,3.677,3.677V8.435A1.839,1.839,0,0,1,20.869,10.273Z" transform="translate(5.551 0)" fill="#193566"/>
    <path id="Path_20033" data-name="Path 20033" d="M22.142,18.533a3.42,3.42,0,0,1-1.237.221,3.64,3.64,0,0,1-1.341-.257L0,11.62V25.648A4.926,4.926,0,0,0,4.791,30.7H37.019a4.926,4.926,0,0,0,4.791-5.056V11.62Z" transform="translate(0 6.282)" fill="#193566"/>
    <path id="Path_20034" data-name="Path 20034" d="M41.81,9.908V14l-20.487,7a1.26,1.26,0,0,1-.836,0L0,14V9.908A4.848,4.848,0,0,1,4.791,5H37.019A4.848,4.848,0,0,1,41.81,9.908Z" transform="translate(0 2.497)" fill="#193566"/>
  </g>
</svg>
